<svg xmlns="http://www.w3.org/2000/svg" viewBox="0 0 512 512" role="img" aria-label="Soulnimal">
  <rect width="512" height="512" fill="#E8E0C8"/>
  <circle cx="256" cy="256" r="200" fill="#173D05"/>
  <circle cx="248" cy="171" r="24" fill="#E3A85A"/>
  <circle cx="312" cy="204" r="24" fill="#E3A85A"/>
  <circle cx="345" cy="270" r="24" fill="#E3A85A"/>
  <path
    fill="#E3A85A"
    d="M205 248c32 0 68 25 80 60 11 34-3 70-36 79-26 7-47-5-55-30-8-24-18-35-43-38-28-4-45-24-41-50 3-22 26-40 52-40 14 0 25 5 43 19Z"
  />
  <path
    fill="#173D05"
    d="M205 265c26 0 53 19 62 46 7 22-1 45-23 51-16 5-29-3-34-19-10-31-26-41-56-45-17-2-27-12-25-26 2-12 17-23 34-23 11 0 21 4 42 16Z"
  />
  <circle cx="248" cy="171" r="8" fill="#173D05"/>
  <circle cx="312" cy="204" r="8" fill="#173D05"/>
  <circle cx="345" cy="270" r="8" fill="#173D05"/>
</svg>
